<!--?xml version="1.0" standalone="no"?-->
              <svg id="sw-js-blob-svg" viewBox="0 0 100 100" xmlns="http://www.w3.org/2000/svg" version="1.1">
                    <defs> 
                        <linearGradient id="sw-gradient" x1="0" x2="1" y1="1" y2="0">
                            <stop id="stop1" stop-color="rgba(248, 117, 55, 1)" offset="0%"></stop>
                            <stop id="stop2" stop-color="rgba(251, 168, 31, 1)" offset="100%"></stop>
                        </linearGradient>
                    </defs>
                <path fill="url(#sw-gradient)" d="M9.6,-19.4C12,-15.2,13.2,-11.8,15.9,-8.7C18.5,-5.6,22.6,-2.8,22.8,0.1C23.1,3.1,19.5,6.1,15.8,7.4C12.1,8.7,8.3,8.3,5.7,6.9C3,5.6,1.5,3.4,-0.4,4.2C-2.3,4.9,-4.7,8.5,-4.8,8.4C-4.9,8.2,-2.7,4.3,-8.8,2.2C-14.9,0.2,-29.3,0.1,-35.9,-3.8C-42.5,-7.7,-41.3,-15.4,-34.3,-15.9C-27.3,-16.4,-14.4,-9.6,-7.8,-11.3C-1.1,-13,-0.5,-23.3,1.5,-25.9C3.6,-28.5,7.2,-23.6,9.6,-19.4Z" width="100%" height="100%" transform="translate(50 50)" stroke-width="0" style="transition: all 0.3s ease 0s;"></path>
              </svg>